<svg id="Group_84" data-name="Group 84" xmlns="http://www.w3.org/2000/svg" xmlns:xlink="http://www.w3.org/1999/xlink" width="43.001" height="42" viewBox="0 0 43.001 42">
  <defs>
    <clipPath id="clip-path">
      <rect id="Rectangle_50" data-name="Rectangle 50" width="43.001" height="42" fill="#f06649"/>
    </clipPath>
  </defs>
  <g id="Group_83" data-name="Group 83" clip-path="url(#clip-path)">
    <path id="Path_76" data-name="Path 76" d="M14,42a4,4,0,1,1,4-4,4,4,0,0,1-4,4m0-6a2,2,0,1,0,2,2,2,2,0,0,0-2-2" fill="#f06649"/>
    <path id="Path_77" data-name="Path 77" d="M34,42a4,4,0,1,1,4-4,4,4,0,0,1-4,4m0-6a2,2,0,1,0,2,2,2,2,0,0,0-2-2" fill="#f06649"/>
    <path id="Path_78" data-name="Path 78" d="M38,26a1,1,0,0,1-.975-1.229l4-17a1,1,0,1,1,1.948.458l-4,17A1,1,0,0,1,38,26" fill="#f06649"/>
    <path id="Path_79" data-name="Path 79" d="M38,26H10a1,1,0,0,1,0-2H38a1,1,0,0,1,0,2" fill="#f06649"/>
    <path id="Path_80" data-name="Path 80" d="M37,31H10.181L9.019,25.2,4.024,3.222a1,1,0,0,1,1.952-.444l5,22L11.819,29H37a1,1,0,0,1,0,2" fill="#f06649"/>
    <path id="Path_81" data-name="Path 81" d="M5,4H1A1,1,0,0,1,1,2H5A1,1,0,0,1,5,4" fill="#f06649"/>
    <rect id="Rectangle_48" data-name="Rectangle 48" width="11" height="2" transform="translate(31 7)" fill="#f06649"/>
    <path id="Path_82" data-name="Path 82" d="M24,16a8,8,0,1,1,8-8,8.009,8.009,0,0,1-8,8M24,2a6,6,0,1,0,6,6,6.006,6.006,0,0,0-6-6" fill="#f06649"/>
    <rect id="Rectangle_49" data-name="Rectangle 49" width="11" height="2" transform="translate(6 7)" fill="#f06649"/>
    <path id="Path_83" data-name="Path 83" d="M23,11a1,1,0,0,1-.707-.293l-2-2a1,1,0,0,1,1.414-1.414l2,2A1,1,0,0,1,23,11" fill="#f06649"/>
    <path id="Path_84" data-name="Path 84" d="M23,11a1,1,0,0,1-.707-1.707l4-4a1,1,0,1,1,1.415,1.414l-4,4A1,1,0,0,1,23,11" fill="#f06649"/>
  </g>
</svg>
