<svg id="Group_95" data-name="Group 95" xmlns="http://www.w3.org/2000/svg" xmlns:xlink="http://www.w3.org/1999/xlink" width="138.34" height="136.306" viewBox="0 0 138.34 136.306">
  <defs>
    <clipPath id="clip-path">
      <rect id="Rectangle_52" data-name="Rectangle 52" width="138.339" height="136.306" fill="none"/>
    </clipPath>
    <clipPath id="clip-path-2">
      <path id="Path_91" data-name="Path 91" d="M17.488,0C7.972,0,.25,8.051.224,18L0,121.45c0-8.2,6.361-14.855,14.207-14.855H138.34V0Z" fill="none"/>
    </clipPath>
    <linearGradient id="linear-gradient" y1="1.122" x2="0.01" y2="1.122" gradientUnits="objectBoundingBox">
      <stop offset="0" stop-color="#ffa942"/>
      <stop offset="1" stop-color="#f06649"/>
    </linearGradient>
    <clipPath id="clip-path-3">
      <path id="Path_92" data-name="Path 92" d="M.224,16.817,0,120.265c0-8.2,6.361-14.855,14.207-14.855H138.34L5.939,3.449A18.376,18.376,0,0,0,.224,16.817" transform="translate(0 -3.449)" fill="none"/>
    </clipPath>
    <linearGradient id="linear-gradient-2" x1="0.117" y1="0.907" x2="0.124" y2="0.907" xlink:href="#linear-gradient"/>
  </defs>
  <g id="Group_88" data-name="Group 88" transform="translate(0 0)">
    <g id="Group_87" data-name="Group 87" clip-path="url(#clip-path)">
      <path id="Path_90" data-name="Path 90" d="M0,94.186H0c0,8.2,6.361,14.855,14.207,14.855H45.6V79.331H14.207C6.361,79.33,0,85.981,0,94.186" transform="translate(0 27.265)" fill="#4cc0d9"/>
    </g>
  </g>
  <g id="Group_90" data-name="Group 90">
    <g id="Group_89" data-name="Group 89" clip-path="url(#clip-path-2)">
      <rect id="Rectangle_53" data-name="Rectangle 53" width="138.34" height="121.45" transform="translate(0 0)" fill="url(#linear-gradient)"/>
    </g>
  </g>
  <g id="Group_92" data-name="Group 92" transform="translate(0 4.634)">
    <g id="Group_91" data-name="Group 91" clip-path="url(#clip-path-3)">
      <rect id="Rectangle_54" data-name="Rectangle 54" width="180.597" height="180.221" transform="matrix(0.716, -0.698, 0.698, 0.716, -58.39, 56.966)" fill="url(#linear-gradient-2)"/>
    </g>
  </g>
  <g id="Group_94" data-name="Group 94" transform="translate(0 0)">
    <g id="Group_93" data-name="Group 93" clip-path="url(#clip-path)">
      <path id="Path_93" data-name="Path 93" d="M21.08,80.827a2.091,2.091,0,0,1-1.946-2.863L31.662,46.349a2.092,2.092,0,0,1,3.89,0L46.4,73.741l9.755-18.45a2.093,2.093,0,0,1,3.655-.081L70.829,73.978l10.95-27.629a2.092,2.092,0,0,1,3.89,0L95.876,72.087,111.3,14.516a2.093,2.093,0,0,1,4.043,1.082L98.282,79.275a2.093,2.093,0,0,1-3.967.231L83.723,52.8,73.141,79.506a2.093,2.093,0,0,1-1.786,1.314,2.047,2.047,0,0,1-1.964-1.028L58.106,60.565,47.982,79.713a2.093,2.093,0,0,1-3.8-.207L33.606,52.8,23.026,79.506a2.094,2.094,0,0,1-1.946,1.321" transform="translate(6.526 4.457)" fill="#fff"/>
      <path id="Path_94" data-name="Path 94" d="M19.885,75.554a7.6,7.6,0,1,1,7.6-7.6,7.609,7.609,0,0,1-7.6,7.6m0-11.014A3.415,3.415,0,1,0,23.3,67.954a3.42,3.42,0,0,0-3.416-3.414" transform="translate(4.222 20.744)" fill="#fff"/>
      <path id="Path_95" data-name="Path 95" d="M99.651,28.485a2.093,2.093,0,0,1-1.8-1.016L91.829,17.421,81.783,23.447a2.092,2.092,0,1,1-2.153-3.588l11.841-7.1a2.091,2.091,0,0,1,2.87.718l7.1,11.842a2.092,2.092,0,0,1-1.792,3.168" transform="translate(27.019 4.282)" fill="#fff"/>
    </g>
  </g>
</svg>
