<svg id="Group_117" data-name="Group 117" xmlns="http://www.w3.org/2000/svg" xmlns:xlink="http://www.w3.org/1999/xlink" width="126.653" height="139.484" viewBox="0 0 126.653 139.484">
  <defs>
    <clipPath id="clip-path">
      <rect id="Rectangle_65" data-name="Rectangle 65" width="126.653" height="139.484" fill="none"/>
    </clipPath>
    <clipPath id="clip-path-2">
      <path id="Path_104" data-name="Path 104" d="M36.392,0V3.6c0,7.646-7.884,13.867-17.576,13.867H0V60.488c0,29.989,22.189,58.333,60.873,77.763l2.453,1.232,2.454-1.232c38.685-19.43,60.873-47.774,60.873-77.763V17.469H107.836c-9.692,0-17.576-6.221-17.576-13.867V0Z" fill="none"/>
    </clipPath>
    <linearGradient id="linear-gradient" y1="1" x2="0.011" y2="1" gradientUnits="objectBoundingBox">
      <stop offset="0" stop-color="#ffa942"/>
      <stop offset="1" stop-color="#f06649"/>
    </linearGradient>
    <clipPath id="clip-path-3">
      <path id="Path_105" data-name="Path 105" d="M47.587,0V139.48l2.446-1.228c38.685-19.43,60.873-47.774,60.873-77.763V17.469H92.09c-9.692,0-17.576-6.221-17.576-13.867V0Z" transform="translate(-47.587)" fill="none"/>
    </clipPath>
    <linearGradient id="linear-gradient-2" x1="-1" x2="-0.979" xlink:href="#linear-gradient"/>
    <clipPath id="clip-path-5">
      <rect id="Rectangle_63" data-name="Rectangle 63" width="33.529" height="67.058" fill="none"/>
    </clipPath>
  </defs>
  <g id="Group_116" data-name="Group 116" clip-path="url(#clip-path)">
    <g id="Group_108" data-name="Group 108">
      <g id="Group_107" data-name="Group 107" clip-path="url(#clip-path-2)">
        <rect id="Rectangle_61" data-name="Rectangle 61" width="126.653" height="139.484" transform="translate(0 0)" fill="url(#linear-gradient)"/>
      </g>
    </g>
    <g id="Group_110" data-name="Group 110" transform="translate(63.334)">
      <g id="Group_109" data-name="Group 109" clip-path="url(#clip-path-3)">
        <rect id="Rectangle_62" data-name="Rectangle 62" width="63.319" height="139.48" fill="url(#linear-gradient-2)"/>
      </g>
    </g>
    <g id="Group_115" data-name="Group 115">
      <g id="Group_114" data-name="Group 114" clip-path="url(#clip-path)">
        <path id="Path_106" data-name="Path 106" d="M7.381,21.151a1.943,1.943,0,0,1-.8-.168,2.043,2.043,0,0,1-.684-.447,2,2,0,0,1-.447-.685,1.941,1.941,0,0,1-.168-.8,1.976,1.976,0,0,1,.041-.4,2.23,2.23,0,0,1,.126-.406,1.7,1.7,0,0,1,.2-.349,1.362,1.362,0,0,1,.252-.322,2.161,2.161,0,0,1,2.961,0,1.455,1.455,0,0,1,.266.322,1.7,1.7,0,0,1,.2.349,1.434,1.434,0,0,1,.112.406,1.886,1.886,0,0,1,.043.4,1.93,1.93,0,0,1-.154.8,2.025,2.025,0,0,1-.462.685,1.952,1.952,0,0,1-.671.447,1.994,1.994,0,0,1-.809.168" transform="translate(1.749 5.621)" fill="#fff"/>
        <path id="Path_107" data-name="Path 107" d="M46.475,114.807h0a2.107,2.107,0,1,1,1.159.35,2.113,2.113,0,0,1-1.159-.35m-13.064-9.919h0a2.09,2.09,0,1,1,1.384.518,2.1,2.1,0,0,1-1.384-.518M21.87,93.137a2.094,2.094,0,1,1,2.948.279,2.074,2.074,0,0,1-2.948-.279M12.634,79.415h0a2.094,2.094,0,1,1,2.836.88,2.279,2.279,0,0,1-.978.238,2.1,2.1,0,0,1-1.858-1.118M6.779,63.837A2.093,2.093,0,1,1,9.3,65.416a2.883,2.883,0,0,1-.476.041,2.1,2.1,0,0,1-2.04-1.62m-1.493-16.5a2.095,2.095,0,1,1,2.095,2.1,2.092,2.092,0,0,1-2.095-2.1m0-16.137a2.095,2.095,0,1,1,2.095,2.1,2.091,2.091,0,0,1-2.095-2.1" transform="translate(1.749 9.63)" fill="#fff"/>
        <path id="Path_108" data-name="Path 108" d="M48.1,100.971a2.036,2.036,0,0,1-1.481-.614,2.007,2.007,0,0,1-.616-1.467,2.137,2.137,0,0,1,.043-.421,3.9,3.9,0,0,1,.112-.39,2.65,2.65,0,0,1,.2-.365,1.867,1.867,0,0,1,.265-.307,1.443,1.443,0,0,1,.321-.265,2.767,2.767,0,0,1,.349-.2,1.459,1.459,0,0,1,.406-.112,2.1,2.1,0,0,1,1.886.572,1.806,1.806,0,0,1,.265.307,1.669,1.669,0,0,1,.182.365,2.216,2.216,0,0,1,.126.39,2.241,2.241,0,0,1,.041.421,2.065,2.065,0,0,1-.615,1.467,2.038,2.038,0,0,1-1.48.614" transform="translate(15.224 32.03)" fill="#fff"/>
        <path id="Path_109" data-name="Path 109" d="M56.816,114.246a2.09,2.09,0,1,1,2.892.571v.016a2.048,2.048,0,0,1-1.146.349,2.082,2.082,0,0,1-1.746-.936M69.823,104.7a2.1,2.1,0,1,1,2.963.209,2.175,2.175,0,0,1-1.383.518,2.1,2.1,0,0,1-1.58-.727M81.377,93.44a2.108,2.108,0,1,1,1.328.475,2.1,2.1,0,0,1-1.328-.475m9.362-13.119a2.1,2.1,0,1,1,2.836-.88,2.1,2.1,0,0,1-1.858,1.117,2.2,2.2,0,0,1-.978-.237m6.175-14.9a2.082,2.082,0,1,1,.49.057,1.924,1.924,0,0,1-.49-.057m-.181-18.064a2.1,2.1,0,1,1,2.1,2.095,2.1,2.1,0,0,1-2.1-2.095m0-16.153a2.1,2.1,0,1,1,2.1,2.1,2.1,2.1,0,0,1-2.1-2.1" transform="translate(18.682 9.633)" fill="#fff"/>
        <path id="Path_110" data-name="Path 110" d="M88.816,21.157a1.983,1.983,0,0,1-.8-.168,2.036,2.036,0,0,1-.685-.447,2.1,2.1,0,0,1-.615-1.481,1.886,1.886,0,0,1,.043-.4,2.225,2.225,0,0,1,.125-.406,1.7,1.7,0,0,1,.2-.349,1.435,1.435,0,0,1,.252-.322,2.815,2.815,0,0,1,.322-.265,2.872,2.872,0,0,1,.363-.2c.125-.041.265-.083.391-.112a2.158,2.158,0,0,1,1.9.574,1.888,1.888,0,0,1,.252.322,1.7,1.7,0,0,1,.2.349,2.229,2.229,0,0,1,.126.406,3.837,3.837,0,0,1,.028.4,2.084,2.084,0,0,1-.6,1.481,2.17,2.17,0,0,1-.684.447,2,2,0,0,1-.811.168" transform="translate(28.696 5.616)" fill="#fff"/>
        <path id="Path_111" data-name="Path 111" d="M80.909,22.2h0a2.1,2.1,0,0,1,.615-4.15,2.1,2.1,0,0,1-.309,4.179,2.658,2.658,0,0,1-.306-.029M66.588,16.456a2.092,2.092,0,1,1,2.92-.433,2.064,2.064,0,0,1-2.92.433" transform="translate(21.751 4.196)" fill="#fff"/>
        <path id="Path_112" data-name="Path 112" d="M61.772,8.028a2.089,2.089,0,0,1-1.48-.615,2.262,2.262,0,0,1-.462-.685,2.118,2.118,0,0,1-.112-1.216,2.075,2.075,0,0,1,.112-.39c.056-.126.125-.237.2-.365a1.845,1.845,0,0,1,.266-.306,2.161,2.161,0,0,1,2.961,0,1.69,1.69,0,0,1,.252.306,2.382,2.382,0,0,1,.2.365,2.253,2.253,0,0,1,.126.39,2.263,2.263,0,0,1,.041.421,2.12,2.12,0,0,1-.615,1.481,2.043,2.043,0,0,1-.684.447,1.943,1.943,0,0,1-.8.168" transform="translate(19.747 1.279)" fill="#fff"/>
        <path id="Path_113" data-name="Path 113" d="M46.008,5.939a2.1,2.1,0,1,1,2.1,2.1,2.094,2.094,0,0,1-2.1-2.1" transform="translate(15.224 1.272)" fill="#fff"/>
        <path id="Path_114" data-name="Path 114" d="M34.435,8.028a2.094,2.094,0,0,1-1.481-.615,2.12,2.12,0,0,1-.615-1.481,2.263,2.263,0,0,1,.041-.421,2.144,2.144,0,0,1,.126-.39,2.274,2.274,0,0,1,.182-.365,2.632,2.632,0,0,1,.265-.306,2.161,2.161,0,0,1,2.961,0,2.09,2.09,0,0,1,.616,1.481,2.06,2.06,0,0,1-.616,1.481,1.952,1.952,0,0,1-.671.447,2.045,2.045,0,0,1-.809.168" transform="translate(10.701 1.279)" fill="#fff"/>
        <path id="Path_115" data-name="Path 115" d="M16.252,20.424A2.089,2.089,0,1,1,18.626,22.2a2.658,2.658,0,0,1-.306.029,2.079,2.079,0,0,1-2.068-1.8m13.776-4.4a2.081,2.081,0,0,1,.434-2.933A2.1,2.1,0,1,1,31.7,16.876a2.061,2.061,0,0,1-1.677-.853" transform="translate(5.37 4.196)" fill="#fff"/>
        <path id="Path_116" data-name="Path 116" d="M55.92,23.629A33.523,33.523,0,1,0,89.448,57.158,33.529,33.529,0,0,0,55.92,23.629" transform="translate(7.409 7.819)" fill="#4cc0d9"/>
        <g id="Group_113" data-name="Group 113" transform="translate(63.328 31.448)" opacity="0.2" style="mix-blend-mode: multiply;isolation: isolate">
          <g id="Group_112" data-name="Group 112">
            <g id="Group_111" data-name="Group 111" clip-path="url(#clip-path-5)">
              <path id="Path_117" data-name="Path 117" d="M47.583,23.629V90.687a33.529,33.529,0,0,0,0-67.057" transform="translate(-47.582 -23.629)" fill="#ffdc69"/>
            </g>
          </g>
        </g>
      </g>
    </g>
  </g>
</svg>
