<svg id="Group_142" data-name="Group 142" xmlns="http://www.w3.org/2000/svg" xmlns:xlink="http://www.w3.org/1999/xlink" width="135.312" height="134.826" viewBox="0 0 135.312 134.826">
  <defs>
    <clipPath id="clip-path">
      <rect id="Rectangle_75" data-name="Rectangle 75" width="135.312" height="134.826" fill="none"/>
    </clipPath>
    <clipPath id="clip-path-3">
      <rect id="Rectangle_66" data-name="Rectangle 66" width="67.656" height="134.826" fill="none"/>
    </clipPath>
    <clipPath id="clip-path-5">
      <rect id="Rectangle_68" data-name="Rectangle 68" width="22.624" height="27.932" fill="none"/>
    </clipPath>
    <clipPath id="clip-path-6">
      <rect id="Rectangle_69" data-name="Rectangle 69" width="21.598" height="19.793" fill="none"/>
    </clipPath>
    <clipPath id="clip-path-7">
      <rect id="Rectangle_70" data-name="Rectangle 70" width="21.692" height="26.782" fill="none"/>
    </clipPath>
    <clipPath id="clip-path-8">
      <path id="Path_133" data-name="Path 133" d="M77.4,73.2v.621a4.375,4.375,0,0,1-8.746,0V73.2H61.035c-2.335,0-4.744,2.108-5.382,4.707l-3.337,14.27H93.732L90.395,77.9c-.637-2.6-3.048-4.707-5.382-4.707Z" transform="translate(-52.316 -73.196)" fill="none"/>
    </clipPath>
    <linearGradient id="linear-gradient" x1="-1.697" y1="1.924" x2="-1.664" y2="1.924" gradientUnits="objectBoundingBox">
      <stop offset="0" stop-color="#fcb958"/>
      <stop offset="1" stop-color="#f37e5d"/>
    </linearGradient>
    <clipPath id="clip-path-10">
      <rect id="Rectangle_73" data-name="Rectangle 73" width="20.708" height="18.978" fill="none"/>
    </clipPath>
  </defs>
  <g id="Group_141" data-name="Group 141" clip-path="url(#clip-path)">
    <path id="Path_118" data-name="Path 118" d="M0,0V134.826H135.312V21.043H116.256V0Z" transform="translate(0 0)" fill="#0066b2"/>
    <g id="Group_122" data-name="Group 122">
      <g id="Group_121" data-name="Group 121" clip-path="url(#clip-path)">
        <g id="Group_120" data-name="Group 120" transform="translate(67.656)" opacity="0.2" style="mix-blend-mode: multiply;isolation: isolate">
          <g id="Group_119" data-name="Group 119">
            <g id="Group_118" data-name="Group 118" clip-path="url(#clip-path-3)">
              <path id="Path_119" data-name="Path 119" d="M118.025,21.043H98.969V0h-48.6V134.826h67.657Z" transform="translate(-50.369 0)" fill="#3f4d66"/>
            </g>
          </g>
        </g>
      </g>
    </g>
    <path id="Path_120" data-name="Path 120" d="M86.55,0V21.043h19.056Z" transform="translate(29.706 0)" fill="#60c9df"/>
    <g id="Group_133" data-name="Group 133">
      <g id="Group_132" data-name="Group 132" clip-path="url(#clip-path)">
        <path id="Path_121" data-name="Path 121" d="M46.676,93.174a2,2,0,0,1-.622-.1A43.632,43.632,0,0,1,16.476,59.245a2.014,2.014,0,1,1,3.965-.713,39.612,39.612,0,0,0,26.852,30.71,2.015,2.015,0,0,1-.618,3.933" transform="translate(5.644 19.519)" fill="#feffff"/>
        <path id="Path_122" data-name="Path 122" d="M35.451,75.89l4.8,8.388-8.391,4.794,5.6,1.526,8.388-4.8-4.8-8.387Z" transform="translate(10.934 26.047)" fill="#feffff"/>
        <path id="Path_123" data-name="Path 123" d="M88.173,55.127a2.017,2.017,0,0,1-1.946-1.494A39.93,39.93,0,0,0,52.244,24.463a2.015,2.015,0,0,1,.439-4.007A43.993,43.993,0,0,1,90.12,52.59a2.018,2.018,0,0,1-1.946,2.537" transform="translate(17.315 7.017)" fill="#feffff"/>
        <path id="Path_124" data-name="Path 124" d="M60.687,31.018l-6.382-7.257,7.26-6.378-5.788-.373L48.52,23.389,54.9,30.645Z" transform="translate(16.653 5.838)" fill="#feffff"/>
        <path id="Path_125" data-name="Path 125" d="M55.267,38.5c-.665-2.711-3.178-4.908-5.613-4.908H41.711v.647a4.564,4.564,0,0,1-9.123,0v-.647H24.646c-2.435,0-4.948,2.2-5.613,4.908q-1.739,7.443-3.48,14.884h43.2q-1.741-7.443-3.48-14.884" transform="translate(5.338 11.528)" fill="#60c9df"/>
        <path id="Path_126" data-name="Path 126" d="M28.236,28.47v7.522a4.564,4.564,0,0,0,9.123,0V28.47a9.328,9.328,0,0,1-9.123,0" transform="translate(9.691 9.772)" fill="#fff"/>
        <path id="Path_127" data-name="Path 127" d="M34.521,8.563c-6.247,0-11.311,6.253-11.311,13.965,0,5.709,2.776,10.609,6.75,12.775a9.328,9.328,0,0,0,9.123,0c3.973-2.167,6.75-7.067,6.75-12.775,0-7.713-5.064-13.965-11.311-13.965" transform="translate(7.966 2.939)" fill="#fae480"/>
        <g id="Group_125" data-name="Group 125" transform="translate(31.176 11.501)" opacity="0.2" style="mix-blend-mode: screen;isolation: isolate">
          <g id="Group_124" data-name="Group 124">
            <g id="Group_123" data-name="Group 123" clip-path="url(#clip-path-5)">
              <path id="Path_128" data-name="Path 128" d="M34.521,8.563c-6.247,0-11.311,6.253-11.311,13.965,0,5.709,2.776,10.609,6.75,12.775a9.328,9.328,0,0,0,9.123,0c3.973-2.167,6.75-7.067,6.75-12.775,0-7.713-5.064-13.965-11.311-13.965" transform="translate(-23.21 -8.562)" fill="#fff"/>
            </g>
          </g>
        </g>
        <g id="Group_128" data-name="Group 128" transform="translate(42.488 45.117)" opacity="0.2" style="mix-blend-mode: multiply;isolation: isolate">
          <g id="Group_127" data-name="Group 127">
            <g id="Group_126" data-name="Group 126" clip-path="url(#clip-path-6)">
              <path id="Path_129" data-name="Path 129" d="M49.748,38.5c-.665-2.711-3.178-4.908-5.613-4.908H36.193v.647a4.489,4.489,0,0,1-4.562,4.412V53.381h21.6q-1.741-7.441-3.48-14.884" transform="translate(-31.632 -33.588)" fill="#40cde0"/>
            </g>
          </g>
        </g>
        <path id="Path_130" data-name="Path 130" d="M64.477,68.288V75.5a4.376,4.376,0,0,0,8.747,0V68.288a8.938,8.938,0,0,1-8.747,0" transform="translate(22.13 23.438)" fill="#fff"/>
        <path id="Path_131" data-name="Path 131" d="M70.5,49.2c-5.989,0-10.847,5.995-10.847,13.391,0,5.474,2.664,10.172,6.473,12.249a8.938,8.938,0,0,0,8.747,0c3.811-2.077,6.473-6.775,6.473-12.249,0-7.4-4.856-13.391-10.847-13.391" transform="translate(20.476 16.887)" fill="#fae480"/>
        <g id="Group_131" data-name="Group 131" transform="translate(80.134 66.087)" opacity="0.2" style="mix-blend-mode: screen;isolation: isolate">
          <g id="Group_130" data-name="Group 130">
            <g id="Group_129" data-name="Group 129" clip-path="url(#clip-path-7)">
              <path id="Path_132" data-name="Path 132" d="M70.5,49.2c-5.989,0-10.847,5.995-10.847,13.391,0,5.474,2.664,10.172,6.473,12.249a8.938,8.938,0,0,0,8.747,0c3.811-2.077,6.473-6.775,6.473-12.249,0-7.4-4.856-13.391-10.847-13.391" transform="translate(-59.658 -49.201)" fill="#fff"/>
            </g>
          </g>
        </g>
      </g>
    </g>
    <g id="Group_135" data-name="Group 135" transform="translate(70.272 98.318)">
      <g id="Group_134" data-name="Group 134" clip-path="url(#clip-path-8)">
        <rect id="Rectangle_72" data-name="Rectangle 72" width="41.416" height="18.977" transform="translate(0)" fill="url(#linear-gradient)"/>
      </g>
    </g>
    <g id="Group_140" data-name="Group 140">
      <g id="Group_139" data-name="Group 139" clip-path="url(#clip-path)">
        <g id="Group_138" data-name="Group 138" transform="translate(90.98 98.318)" opacity="0.2" style="mix-blend-mode: multiply;isolation: isolate">
          <g id="Group_137" data-name="Group 137">
            <g id="Group_136" data-name="Group 136" clip-path="url(#clip-path-10)">
              <path id="Path_134" data-name="Path 134" d="M85.1,77.9c-.638-2.6-3.046-4.707-5.382-4.707H72.107v.621a4.3,4.3,0,0,1-4.375,4.231V92.174H88.44L85.1,77.9" transform="translate(-67.733 -73.196)" fill="#ff5642"/>
            </g>
          </g>
        </g>
      </g>
    </g>
  </g>
</svg>
