<svg xmlns="http://www.w3.org/2000/svg" xmlns:xlink="http://www.w3.org/1999/xlink" width="151.568" height="46.691" viewBox="0 0 151.568 46.691">
  <defs>
    <clipPath id="clip-path">
      <rect id="Rectangle_4" data-name="Rectangle 4" width="151.568" height="46.691" fill="none"/>
    </clipPath>
    <clipPath id="clip-path-2">
      <path id="Path_2" data-name="Path 2" d="M26.546,0,13.945,46.69,36.659,35a8.834,8.834,0,0,0,4.512-5.662L49.168,0Z" transform="translate(-13.945 -0.001)" fill="none"/>
    </clipPath>
    <linearGradient id="linear-gradient" x1="-0.194" y1="0.983" x2="-0.167" y2="0.983" gradientUnits="objectBoundingBox">
      <stop offset="0" stop-color="#ffa942"/>
      <stop offset="1" stop-color="#f06649"/>
    </linearGradient>
  </defs>
  <g id="Group_31" data-name="Group 31" transform="translate(0 0)">
    <g id="Group_26" data-name="Group 26" transform="translate(0 0)">
      <g id="Group_25" data-name="Group 25" clip-path="url(#clip-path)">
        <path id="Path_1" data-name="Path 1" d="M17.716,45.9l-14-9.953A8.831,8.831,0,0,1,.3,26.467L7.014,1.6l22.209-.021Z" transform="translate(0 0.789)" fill="#4cc0d9"/>
      </g>
    </g>
    <g id="Group_28" data-name="Group 28" transform="translate(20.899 0.002)">
      <g id="Group_27" data-name="Group 27" transform="translate(0 0)" clip-path="url(#clip-path-2)">
        <rect id="Rectangle_5" data-name="Rectangle 5" width="55.521" height="48.339" transform="translate(-14.187 41.884) rotate(-71.288)" fill="url(#linear-gradient)"/>
      </g>
    </g>
    <g id="Group_30" data-name="Group 30" transform="translate(0 0)">
      <g id="Group_29" data-name="Group 29" clip-path="url(#clip-path)">
        <path id="Path_3" data-name="Path 3" d="M43.694,7.616l1.8,5.422c.322.97.556,1.867.764,2.777h.081c.207-.934.444-1.794.746-2.777l1.737-5.422h3.838L47.957,18.925h-3.63L39.738,7.616Z" transform="translate(19.816 3.798)" fill="#0055a5"/>
        <path id="Path_4" data-name="Path 4" d="M52.4,6.076a1.773,1.773,0,0,1-2,1.684,1.749,1.749,0,0,1-1.929-1.684,1.985,1.985,0,0,1,3.925,0m-3.79,3.149h3.655V20.534H48.614Z" transform="translate(24.174 2.189)" fill="#0055a5"/>
        <path id="Path_5" data-name="Path 5" d="M64.317,4.2V17.322c0,1.241.048,2.548.1,3.308H61.172l-.156-1.7h-.055a4.535,4.535,0,0,1-3.973,1.956c-2.97,0-5.356-2.3-5.356-5.8-.019-3.795,2.618-6.022,5.612-6.022a4.032,4.032,0,0,1,3.37,1.344h.051V4.2Zm-3.651,9.9a3.325,3.325,0,0,0-.057-.674A2.419,2.419,0,0,0,58.192,11.6c-1.873,0-2.855,1.5-2.855,3.384,0,1.963,1.075,3.272,2.825,3.272a2.424,2.424,0,0,0,2.417-1.8,3.1,3.1,0,0,0,.087-.809Z" transform="translate(25.747 2.092)" fill="#0055a5"/>
        <path id="Path_6" data-name="Path 6" d="M72.841,15.381c0,1.428.046,2.611.1,3.544H69.768L69.6,17.291H69.52a4.591,4.591,0,0,1-3.941,1.888c-2.461,0-4.391-1.37-4.391-4.92V7.616h3.654v6.1c0,1.729.614,2.793,2.091,2.793a2.259,2.259,0,0,0,2.1-1.337,1.953,1.953,0,0,0,.15-.793V7.616h3.657Z" transform="translate(30.511 3.798)" fill="#0055a5"/>
        <path id="Path_7" data-name="Path 7" d="M41.687,27.72a7.973,7.973,0,0,0,3.293.836c1.25,0,1.794-.415,1.794-1.049s-.438-.965-1.912-1.422c-2.555-.769-3.55-2.022-3.537-3.354,0-2.079,1.935-3.658,4.982-3.658a8.637,8.637,0,0,1,3.46.665l-.661,2.281a6.654,6.654,0,0,0-2.695-.643c-1.01,0-1.583.4-1.583,1.009s.534.907,2.085,1.4c2.345.728,3.361,1.813,3.375,3.469,0,2.094-1.809,3.625-5.305,3.625a9.445,9.445,0,0,1-3.977-.794Z" transform="translate(20.447 9.511)" fill="#0055a5"/>
        <path id="Path_8" data-name="Path 8" d="M60.276,24.87c0,4.141-3.242,6.022-6.551,6.022-3.609,0-6.4-2.184-6.4-5.827,0-3.669,2.681-5.992,6.624-5.992,3.8,0,6.33,2.378,6.33,5.8m-9.2.118c0,2.014,1.006,3.54,2.752,3.54,1.62,0,2.684-1.445,2.684-3.564,0-1.705-.766-3.526-2.675-3.526-1.983,0-2.761,1.8-2.761,3.55" transform="translate(23.597 9.511)" fill="#0055a5"/>
        <rect id="Rectangle_6" data-name="Rectangle 6" width="3.655" height="15.468" transform="translate(84.797 24.681)" fill="#0055a5"/>
        <path id="Path_9" data-name="Path 9" d="M71.782,27.008c0,1.427.048,2.611.1,3.544H68.711l-.171-1.635h-.078a4.591,4.591,0,0,1-3.943,1.89c-2.459,0-4.391-1.37-4.391-4.92V19.243h3.655v6.1c0,1.731.613,2.793,2.089,2.793a2.255,2.255,0,0,0,2.1-1.335,1.928,1.928,0,0,0,.151-.793V19.243h3.655Z" transform="translate(29.983 9.596)" fill="#0055a5"/>
        <path id="Path_10" data-name="Path 10" d="M73.521,17.088v3.23H76.4v2.437H73.521v4.4c0,1.37.387,2.025,1.566,2.025a5.626,5.626,0,0,0,1.184-.111l.04,2.5a8.658,8.658,0,0,1-2.45.3A4.178,4.178,0,0,1,71,30.906a4.3,4.3,0,0,1-1.049-3.291v-4.86H68.241V20.318h1.707V17.843Z" transform="translate(34.029 8.521)" fill="#0055a5"/>
        <path id="Path_11" data-name="Path 11" d="M78.031,17.7a1.772,1.772,0,0,1-2,1.683,1.707,1.707,0,1,1,2-1.683m-3.79,3.147H77.9V32.161H74.241Z" transform="translate(36.953 7.987)" fill="#0055a5"/>
        <path id="Path_12" data-name="Path 12" d="M90.214,24.87c0,4.141-3.242,6.022-6.551,6.022-3.609,0-6.4-2.184-6.4-5.827,0-3.669,2.681-5.992,6.624-5.992,3.8,0,6.33,2.378,6.33,5.8m-9.2.118c0,2.014,1.006,3.54,2.752,3.54,1.62,0,2.684-1.445,2.684-3.564,0-1.705-.766-3.526-2.675-3.526-1.983,0-2.761,1.8-2.761,3.55" transform="translate(38.526 9.511)" fill="#0055a5"/>
        <path id="Path_13" data-name="Path 13" d="M86.554,22.856c0-1.374-.048-2.525-.1-3.528h3.173l.172,1.611h.079a4.669,4.669,0,0,1,3.913-1.866c2.434,0,4.478,1.449,4.478,4.862v6.7H94.612V24.33c0-1.512-.605-2.591-2.122-2.591a2.261,2.261,0,0,0-2.142,1.446,2.379,2.379,0,0,0-.139.883v6.569H86.554Z" transform="translate(43.11 9.511)" fill="#0055a5"/>
        <path id="Path_14" data-name="Path 14" d="M95.624,27.72a7.973,7.973,0,0,0,3.293.836c1.25,0,1.794-.415,1.794-1.049s-.438-.965-1.912-1.422c-2.555-.769-3.55-2.022-3.537-3.354,0-2.079,1.935-3.658,4.982-3.658a8.637,8.637,0,0,1,3.46.665l-.661,2.281a6.654,6.654,0,0,0-2.695-.643c-1.01,0-1.583.4-1.583,1.009s.534.907,2.085,1.4c2.345.728,3.361,1.813,3.375,3.469,0,2.094-1.809,3.625-5.305,3.625a9.445,9.445,0,0,1-3.977-.794Z" transform="translate(47.343 9.511)" fill="#0055a5"/>
      </g>
    </g>
  </g>
</svg>
