<svg xmlns="http://www.w3.org/2000/svg" xmlns:xlink="http://www.w3.org/1999/xlink" width="194.068" height="59.784" viewBox="0 0 194.068 59.784">
  <defs>
    <clipPath id="clip-path">
      <rect id="Rectangle_4" data-name="Rectangle 4" width="194.068" height="59.783" fill="#fff"/>
    </clipPath>
    <clipPath id="clip-path-2">
      <path id="Path_2" data-name="Path 2" d="M30.079,0,13.945,59.782,43.028,44.813a11.311,11.311,0,0,0,5.778-7.25L59.044,0Z" transform="translate(-13.945 -0.001)" fill="#fff"/>
    </clipPath>
  </defs>
  <g id="Group_45" data-name="Group 45" transform="translate(0 0)">
    <g id="Group_26" data-name="Group 26" transform="translate(0 0)">
      <g id="Group_25" data-name="Group 25" clip-path="url(#clip-path)">
        <path id="Path_1" data-name="Path 1" d="M22.683,58.329,4.755,45.586A11.307,11.307,0,0,1,.386,33.445L8.98,1.609l28.436-.027Z" transform="translate(0 1.454)" fill="#fff"/>
      </g>
    </g>
    <g id="Group_28" data-name="Group 28" transform="translate(26.759 0.002)">
      <g id="Group_27" data-name="Group 27" transform="translate(0 0)" clip-path="url(#clip-path-2)">
        <rect id="Rectangle_5" data-name="Rectangle 5" width="71.089" height="61.894" transform="translate(-18.164 53.628) rotate(-71.288)" fill="#fff"/>
      </g>
    </g>
    <g id="Group_30" data-name="Group 30" transform="translate(0 0)">
      <g id="Group_29" data-name="Group 29" clip-path="url(#clip-path)">
        <path id="Path_3" data-name="Path 3" d="M44.8,7.616l2.308,6.943c.413,1.242.712,2.391.979,3.556h.1c.265-1.2.568-2.3.956-3.556l2.224-6.943h4.914L50.261,22.1H45.614L39.738,7.616Z" transform="translate(36.515 6.999)" fill="#fff"/>
        <path id="Path_4" data-name="Path 4" d="M53.5,6.55a2.27,2.27,0,0,1-2.556,2.157,2.239,2.239,0,0,1-2.47-2.157,2.256,2.256,0,0,1,2.516-2.161A2.253,2.253,0,0,1,53.5,6.55m-4.853,4.032h4.68v14.48h-4.68Z" transform="translate(44.546 4.034)" fill="#fff"/>
        <path id="Path_5" data-name="Path 5" d="M67.873,4.2V21c0,1.589.061,3.262.13,4.235H63.848l-.2-2.178h-.071a5.807,5.807,0,0,1-5.087,2.5c-3.8,0-6.858-2.94-6.858-7.422-.025-4.859,3.352-7.71,7.186-7.71a5.163,5.163,0,0,1,4.316,1.721H63.2V4.2ZM63.2,16.865A4.257,4.257,0,0,0,63.126,16a3.1,3.1,0,0,0-3.1-2.326c-2.4,0-3.655,1.915-3.655,4.333,0,2.514,1.376,4.189,3.617,4.189a3.1,3.1,0,0,0,3.1-2.308,3.975,3.975,0,0,0,.111-1.036Z" transform="translate(47.444 3.855)" fill="#fff"/>
        <path id="Path_6" data-name="Path 6" d="M76.108,17.558c0,1.829.059,3.343.129,4.538H72.175L71.956,20h-.1a5.878,5.878,0,0,1-5.047,2.418c-3.151,0-5.622-1.754-5.622-6.3V7.616h4.678v7.816c0,2.214.787,3.577,2.677,3.577A2.893,2.893,0,0,0,71.234,17.3a2.5,2.5,0,0,0,.192-1.015V7.616h4.682Z" transform="translate(56.224 6.999)" fill="#fff"/>
        <path id="Path_7" data-name="Path 7" d="M41.878,30.145a10.209,10.209,0,0,0,4.216,1.071c1.6,0,2.3-.532,2.3-1.343,0-.827-.56-1.236-2.448-1.821-3.272-.984-4.546-2.589-4.529-4.294,0-2.661,2.477-4.684,6.378-4.684a11.059,11.059,0,0,1,4.431.852l-.846,2.921a8.52,8.52,0,0,0-3.45-.823c-1.293,0-2.026.509-2.026,1.291s.683,1.161,2.669,1.792c3,.933,4.3,2.322,4.321,4.442,0,2.681-2.316,4.642-6.793,4.642A12.093,12.093,0,0,1,41,33.173Z" transform="translate(37.679 17.526)" fill="#fff"/>
        <path id="Path_8" data-name="Path 8" d="M63.909,26.5c0,5.3-4.151,7.71-8.387,7.71-4.621,0-8.2-2.8-8.2-7.461,0-4.7,3.433-7.672,8.481-7.672,4.864,0,8.105,3.045,8.105,7.422m-11.774.152c0,2.579,1.288,4.532,3.523,4.532,2.074,0,3.437-1.85,3.437-4.563,0-2.184-.981-4.515-3.425-4.515-2.539,0-3.535,2.31-3.535,4.546" transform="translate(43.483 17.526)" fill="#fff"/>
        <rect id="Rectangle_6" data-name="Rectangle 6" width="4.68" height="19.805" transform="translate(108.574 31.602)" fill="#fff"/>
        <path id="Path_9" data-name="Path 9" d="M75.049,29.185c0,1.827.061,3.343.13,4.538H71.117L70.9,31.629h-.1a5.878,5.878,0,0,1-5.049,2.42c-3.149,0-5.622-1.754-5.622-6.3V19.243h4.68v7.814c0,2.216.785,3.577,2.675,3.577a2.887,2.887,0,0,0,2.692-1.71,2.469,2.469,0,0,0,.194-1.015V19.243h4.68Z" transform="translate(55.25 17.683)" fill="#fff"/>
        <path id="Path_10" data-name="Path 10" d="M75,17.088v4.135h3.682v3.12H75v5.634c0,1.754.5,2.592,2.005,2.592a7.2,7.2,0,0,0,1.516-.142l.052,3.2a11.086,11.086,0,0,1-3.137.384A5.349,5.349,0,0,1,71.77,34.78c-.908-.85-1.343-2.212-1.343-4.214V24.343H68.241v-3.12h2.186V18.055Z" transform="translate(62.705 15.702)" fill="#fff"/>
        <path id="Path_11" data-name="Path 11" d="M79.132,18.178a2.268,2.268,0,0,1-2.556,2.155,2.186,2.186,0,1,1,2.556-2.155m-4.853,4.03h4.68v14.48h-4.68Z" transform="translate(68.095 14.718)" fill="#fff"/>
        <path id="Path_12" data-name="Path 12" d="M93.847,26.5c0,5.3-4.151,7.71-8.387,7.71-4.621,0-8.2-2.8-8.2-7.461,0-4.7,3.433-7.672,8.481-7.672,4.864,0,8.105,3.045,8.105,7.422m-11.774.152c0,2.579,1.288,4.532,3.523,4.532,2.074,0,3.437-1.85,3.437-4.563,0-2.184-.981-4.515-3.425-4.515-2.539,0-3.535,2.31-3.535,4.546" transform="translate(70.993 17.526)" fill="#fff"/>
        <path id="Path_13" data-name="Path 13" d="M86.582,23.916c0-1.76-.061-3.233-.13-4.517h4.062l.221,2.063h.1a5.978,5.978,0,0,1,5.01-2.389c3.116,0,5.734,1.856,5.734,6.225v8.581H96.9V25.8c0-1.936-.775-3.318-2.717-3.318a2.9,2.9,0,0,0-2.742,1.852,3.046,3.046,0,0,0-.178,1.13v8.41h-4.68Z" transform="translate(79.439 17.526)" fill="#fff"/>
        <path id="Path_14" data-name="Path 14" d="M95.815,30.145a10.209,10.209,0,0,0,4.216,1.071c1.6,0,2.3-.532,2.3-1.343,0-.827-.56-1.236-2.449-1.821-3.272-.984-4.546-2.589-4.529-4.294,0-2.661,2.477-4.684,6.378-4.684a11.059,11.059,0,0,1,4.431.852l-.846,2.921a8.52,8.52,0,0,0-3.45-.823c-1.293,0-2.026.509-2.026,1.291s.683,1.161,2.669,1.792c3,.933,4.3,2.322,4.321,4.442,0,2.681-2.316,4.642-6.793,4.642a12.093,12.093,0,0,1-5.093-1.017Z" transform="translate(87.24 17.526)" fill="#fff"/>
      </g>
    </g>
  </g>
</svg>
