<svg id="Group_82" data-name="Group 82" xmlns="http://www.w3.org/2000/svg" xmlns:xlink="http://www.w3.org/1999/xlink" width="30" height="50" viewBox="0 0 30 50">
  <defs>
    <clipPath id="clip-path">
      <rect id="Rectangle_47" data-name="Rectangle 47" width="30" height="50" fill="#f06649"/>
    </clipPath>
  </defs>
  <g id="Group_81" data-name="Group 81" clip-path="url(#clip-path)">
    <path id="Path_73" data-name="Path 73" d="M25,50H5a5.006,5.006,0,0,1-5-5V5A5.006,5.006,0,0,1,5,0H25a5.006,5.006,0,0,1,5,5V45a5.006,5.006,0,0,1-5,5M5,2A3,3,0,0,0,2,5V45a3,3,0,0,0,3,3H25a3,3,0,0,0,3-3V5a3,3,0,0,0-3-3Z" fill="#f06649"/>
    <path id="Path_74" data-name="Path 74" d="M30,9H28a3,3,0,0,0-3-3H5A3,3,0,0,0,2,9H0A5.006,5.006,0,0,1,5,4H25a5.006,5.006,0,0,1,5,5" fill="#f06649"/>
    <path id="Path_75" data-name="Path 75" d="M25,46H5a5.006,5.006,0,0,1-5-5H2a3,3,0,0,0,3,3H25a3,3,0,0,0,3-3h2a5.006,5.006,0,0,1-5,5" fill="#f06649"/>
    <rect id="Rectangle_42" data-name="Rectangle 42" width="12.058" height="2" transform="translate(5.5 10.074)" fill="#f06649"/>
    <rect id="Rectangle_43" data-name="Rectangle 43" width="7.537" height="2" transform="translate(5.5 16.455)" fill="#f06649"/>
    <rect id="Rectangle_44" data-name="Rectangle 44" width="13.565" height="2" transform="translate(5.5 22.836)" fill="#f06649"/>
    <rect id="Rectangle_45" data-name="Rectangle 45" width="18.087" height="2" transform="translate(5.5 29.217)" fill="#f06649"/>
    <rect id="Rectangle_46" data-name="Rectangle 46" width="13.565" height="2" transform="translate(5.5 35.598)" fill="#f06649"/>
  </g>
</svg>
