<svg id="Group_80" data-name="Group 80" xmlns="http://www.w3.org/2000/svg" xmlns:xlink="http://www.w3.org/1999/xlink" width="48" height="29" viewBox="0 0 48 29">
  <defs>
    <clipPath id="clip-path">
      <rect id="Rectangle_41" data-name="Rectangle 41" width="48" height="29" fill="#f06649"/>
    </clipPath>
  </defs>
  <g id="Group_79" data-name="Group 79" clip-path="url(#clip-path)">
    <path id="Path_71" data-name="Path 71" d="M47,29H1a1,1,0,0,1,0-2H47a1,1,0,0,1,0,2" fill="#f06649"/>
    <path id="Path_72" data-name="Path 72" d="M42,26H6a1,1,0,0,1-1-1V1A1,1,0,0,1,6,0H42a1,1,0,0,1,1,1V25a1,1,0,0,1-1,1M7,24H41V2H7Z" fill="#f06649"/>
    <rect id="Rectangle_38" data-name="Rectangle 38" width="25.93" height="2" transform="translate(10.351 5.197)" fill="#f06649"/>
    <rect id="Rectangle_39" data-name="Rectangle 39" width="25.93" height="2" transform="translate(10.351 10.047)" fill="#f06649"/>
    <rect id="Rectangle_40" data-name="Rectangle 40" width="20.333" height="2" transform="translate(10.352 14.896)" fill="#f06649"/>
  </g>
</svg>
